<svg width="109" height="109" viewBox="0 0 109 109" fill="none" xmlns="http://www.w3.org/2000/svg">
<path d="M109 54.5C109 84.5995 84.5995 109 54.5 109C24.4005 109 0 84.5995 0 54.5C0 24.4005 24.4005 0 54.5 0C84.5995 0 109 24.4005 109 54.5Z" fill="#1E1E1E"/>
<path d="M44.704 51.6153C51.9485 53.5099 52.8018 58.2039 53.6237 61.0223C56.293 58.9192 60.4702 56.2987 66.653 58.1354C72.8359 59.972 73.1901 66.5128 73.1749 68.7608C71.9985 72.5945 71.6365 73.7741 70.3848 75.6547C64.9254 84.6517 50.4256 89.0326 47.5905 89.4775C45.3224 89.8335 43.9662 88.83 43.5717 88.2837C28.7559 73.9074 29.3216 62.1696 29.1559 60.5115C28.9902 58.8534 30.1313 55.8673 30.7848 55.2033C32.406 53.2179 37.4595 49.7208 44.704 51.6153Z" fill="#9ADAB0"/>
<path d="M35.0893 37.4172C36.3604 42.306 34.2838 47.0512 30.451 48.0159C26.6183 48.9806 22.4808 45.7994 21.2097 40.9106C19.9386 36.0218 22.0152 31.2766 25.848 30.3119C29.6807 29.3472 33.8182 32.5284 35.0893 37.4172Z" fill="#9ADAB0"/>
<path d="M56.3991 33.5419C54.864 39.9375 50.142 44.3142 45.8521 43.3174C41.5622 42.3207 39.329 36.328 40.864 29.9324C42.399 23.5367 47.121 19.1601 51.4109 20.1568C55.7008 21.1535 57.9341 27.1462 56.3991 33.5419Z" fill="#9ADAB0"/>
<path d="M79.0168 38.4185C78.3233 44.9024 73.816 49.7502 68.9493 49.2463C64.0826 48.7424 60.6996 43.0777 61.3931 36.5938C62.0866 30.1099 66.594 25.2622 71.4606 25.7661C76.3273 26.2699 79.7103 31.9347 79.0168 38.4185Z" fill="#9ADAB0"/>
<path d="M87.9391 58.7062C86.7502 62.5465 83.2643 64.9038 80.153 63.9714C77.0417 63.0389 75.4834 59.1699 76.6722 55.3296C77.8611 51.4893 81.3471 49.1321 84.4584 50.0645C87.5696 50.9969 89.128 54.866 87.9391 58.7062Z" fill="#9ADAB0"/>
</svg>
