<svg width="616" height="128" viewBox="0 0 616 128" fill="none" xmlns="http://www.w3.org/2000/svg">
<path d="M180.707 56.6758C180.707 59.3398 180.363 61.6888 179.676 63.7227C179.017 65.7565 178.072 67.5182 176.84 69.0078C175.637 70.4974 174.204 71.7435 172.543 72.7461C170.882 73.7487 169.062 74.5508 167.086 75.1523C165.138 75.7539 163.061 76.1836 160.855 76.4414C158.678 76.6992 156.458 76.8281 154.195 76.8281C151.216 76.8281 148.466 76.599 145.945 76.1406C143.424 75.7109 141.047 75.0234 138.812 74.0781C136.607 73.1042 134.473 71.8581 132.41 70.3398C130.376 68.8216 128.342 66.974 126.309 64.7969L135.074 55.9023C135.876 57.8789 136.979 59.7122 138.383 61.4023C139.786 63.0638 141.319 64.4961 142.98 65.6992C144.671 66.9023 146.418 67.8477 148.223 68.5352C150.027 69.2227 151.732 69.5664 153.336 69.5664C155.227 69.5664 157.003 69.4375 158.664 69.1797C160.326 68.8932 161.772 68.4349 163.004 67.8047C164.236 67.1745 165.195 66.3438 165.883 65.3125C166.599 64.2526 166.957 62.9349 166.957 61.3594C166.957 60.1562 166.685 59.125 166.141 58.2656C165.596 57.4062 164.88 56.6758 163.992 56.0742C163.133 55.444 162.145 54.9141 161.027 54.4844C159.91 54.0547 158.764 53.6966 157.59 53.4102C156.444 53.0951 155.312 52.8229 154.195 52.5938C153.078 52.3359 152.09 52.0781 151.23 51.8203C149.54 51.3333 147.779 50.8177 145.945 50.2734C144.112 49.7005 142.307 49.056 140.531 48.3398C138.755 47.6237 137.065 46.8073 135.461 45.8906C133.885 44.9453 132.496 43.8424 131.293 42.582C130.09 41.293 129.13 39.8177 128.414 38.1562C127.698 36.4661 127.34 34.5326 127.34 32.3555C127.34 29.7487 127.655 27.4427 128.285 25.4375C128.944 23.4036 129.861 21.6419 131.035 20.1523C132.21 18.6628 133.599 17.4167 135.203 16.4141C136.807 15.3828 138.569 14.5664 140.488 13.9648C142.408 13.3346 144.441 12.8906 146.59 12.6328C148.767 12.3464 150.987 12.2031 153.25 12.2031C156.344 12.2031 159.151 12.4896 161.672 13.0625C164.221 13.6354 166.57 14.4518 168.719 15.5117C170.867 16.5716 172.829 17.8464 174.605 19.3359C176.41 20.7969 178.1 22.4297 179.676 24.2344L170.91 33.1289C170.223 31.0664 169.263 29.2044 168.031 27.543C166.828 25.8815 165.482 24.4635 163.992 23.2891C162.503 22.0859 160.941 21.1693 159.309 20.5391C157.676 19.8802 156.1 19.5508 154.582 19.5508C152.605 19.5508 150.786 19.694 149.125 19.9805C147.464 20.2383 146.031 20.6823 144.828 21.3125C143.654 21.9141 142.737 22.7448 142.078 23.8047C141.419 24.8359 141.09 26.125 141.09 27.6719C141.09 28.9036 141.333 29.9492 141.82 30.8086C142.307 31.668 142.952 32.3984 143.754 33C144.585 33.6016 145.516 34.1029 146.547 34.5039C147.578 34.8763 148.638 35.2057 149.727 35.4922C150.844 35.7786 151.932 36.0365 152.992 36.2656C154.081 36.4661 155.069 36.6953 155.957 36.9531C157.676 37.4401 159.48 37.9557 161.371 38.5C163.262 39.0443 165.124 39.6888 166.957 40.4336C168.79 41.1497 170.538 41.9805 172.199 42.9258C173.861 43.8711 175.322 45.0026 176.582 46.3203C177.842 47.6094 178.845 49.1133 179.59 50.832C180.335 52.5221 180.707 54.4701 180.707 56.6758Z" fill="black"/>
<path d="M239.875 75.582H225.352V69.6523C223.633 72.0013 221.556 73.7487 219.121 74.8945C216.715 76.0117 214.065 76.5703 211.172 76.5703C207.391 76.5703 204.01 75.8971 201.031 74.5508C198.052 73.2044 195.531 71.3711 193.469 69.0508C191.406 66.7018 189.831 63.9518 188.742 60.8008C187.654 57.6497 187.109 54.2695 187.109 50.6602C187.109 47.0508 187.654 43.6706 188.742 40.5195C189.831 37.3685 191.406 34.6328 193.469 32.3125C195.531 29.9635 198.052 28.1159 201.031 26.7695C204.01 25.4232 207.391 24.75 211.172 24.75C213.091 24.75 214.91 25.0365 216.629 25.6094C218.376 26.1823 219.966 26.9987 221.398 28.0586C222.859 29.0898 224.134 30.3503 225.223 31.8398C226.34 33.3008 227.214 34.9336 227.844 36.7383L234.289 25.9531H239.875V75.582ZM225.266 50.6602C225.266 49.3711 225.194 48.0104 225.051 46.5781C224.936 45.1458 224.721 43.7279 224.406 42.3242C224.091 40.9206 223.647 39.5885 223.074 38.3281C222.53 37.0391 221.814 35.9076 220.926 34.9336C220.066 33.931 219.021 33.1432 217.789 32.5703C216.557 31.9974 215.125 31.7109 213.492 31.7109C211.859 31.7109 210.441 32.0117 209.238 32.6133C208.035 33.1862 207.004 33.974 206.145 34.9766C205.285 35.9505 204.569 37.082 203.996 38.3711C203.452 39.6602 203.022 41.0065 202.707 42.4102C202.392 43.8138 202.163 45.2318 202.02 46.6641C201.905 48.0677 201.848 49.3997 201.848 50.6602C201.848 51.9206 201.905 53.2669 202.02 54.6992C202.163 56.1315 202.392 57.5495 202.707 58.9531C203.022 60.3568 203.452 61.7031 203.996 62.9922C204.569 64.2812 205.285 65.4271 206.145 66.4297C207.004 67.4036 208.035 68.1914 209.238 68.793C210.441 69.3659 211.859 69.6523 213.492 69.6523C214.982 69.6523 216.299 69.3516 217.445 68.75C218.62 68.1198 219.637 67.2891 220.496 66.2578C221.384 65.2266 222.129 64.0521 222.73 62.7344C223.332 61.4167 223.819 60.056 224.191 58.6523C224.564 57.2487 224.836 55.8594 225.008 54.4844C225.18 53.0807 225.266 51.806 225.266 50.6602Z" fill="black"/>
<path d="M298.398 5.54297L290.191 19.1211C290.105 18.0326 289.905 16.7865 289.59 15.3828C289.275 13.9505 288.745 12.6042 288 11.3438C287.284 10.0833 286.281 9.02344 284.992 8.16406C283.732 7.27604 282.113 6.83203 280.137 6.83203C278.103 6.83203 276.47 7.23307 275.238 8.03516C274.007 8.83724 273.061 10.0404 272.402 11.6445C271.743 13.2487 271.299 15.2396 271.07 17.6172C270.841 19.9948 270.727 22.7591 270.727 25.9102H285.766V31.668H270.727V75.582H256.16V31.668H247.137V25.9102H256.16C256.16 21.3555 256.647 17.4453 257.621 14.1797C258.595 10.9141 260.07 8.23568 262.047 6.14453C264.023 4.02474 266.501 2.47786 269.48 1.50391C272.488 0.501302 275.997 0 280.008 0C282.414 0 284.562 0.171875 286.453 0.515625C288.372 0.830729 290.062 1.26042 291.523 1.80469C293.013 2.32031 294.316 2.90755 295.434 3.56641C296.551 4.22526 297.539 4.88411 298.398 5.54297Z" fill="black"/>
<path d="M302.738 52.0352C304.514 52.4362 306.29 52.7513 308.066 52.9805C309.842 53.2096 311.633 53.3242 313.438 53.3242C315.328 53.3242 317.076 53.1523 318.68 52.8086C320.312 52.4362 321.716 51.8346 322.891 51.0039C324.094 50.1445 325.039 49.013 325.727 47.6094C326.414 46.2057 326.758 44.4583 326.758 42.3672C326.758 40.6771 326.529 39.1302 326.07 37.7266C325.612 36.3229 324.924 35.1198 324.008 34.1172C323.12 33.1146 322.017 32.3411 320.699 31.7969C319.382 31.224 317.849 30.9375 316.102 30.9375C314.469 30.9375 312.993 31.2383 311.676 31.8398C310.387 32.4414 309.241 33.2578 308.238 34.2891C307.264 35.2917 306.419 36.4661 305.703 37.8125C305.016 39.1589 304.443 40.5625 303.984 42.0234C303.526 43.4844 303.197 44.9596 302.996 46.4492C302.796 47.9388 302.695 49.3424 302.695 50.6602C302.695 50.8893 302.695 51.1185 302.695 51.3477C302.695 51.5768 302.71 51.806 302.738 52.0352ZM338.531 42.2383C338.531 44.2721 338.202 46.0911 337.543 47.6953C336.884 49.2708 335.982 50.6602 334.836 51.8633C333.719 53.0664 332.415 54.0833 330.926 54.9141C329.436 55.7448 327.846 56.4323 326.156 56.9766C324.466 57.4922 322.719 57.8646 320.914 58.0938C319.138 58.3229 317.405 58.4375 315.715 58.4375C313.566 58.4375 311.447 58.2943 309.355 58.0078C307.264 57.6927 305.202 57.2057 303.168 56.5469C303.483 58.4375 303.984 60.2422 304.672 61.9609C305.359 63.651 306.276 65.1406 307.422 66.4297C308.568 67.6901 309.971 68.6927 311.633 69.4375C313.323 70.1823 315.314 70.5547 317.605 70.5547C319.124 70.5547 320.57 70.3255 321.945 69.8672C323.32 69.4089 324.581 68.7643 325.727 67.9336C326.872 67.1029 327.875 66.1146 328.734 64.9688C329.622 63.8229 330.339 62.5482 330.883 61.1445L337.156 63.4648C336.211 65.7279 334.908 67.6901 333.246 69.3516C331.613 70.9844 329.751 72.3451 327.66 73.4336C325.598 74.4935 323.392 75.2812 321.043 75.7969C318.723 76.3125 316.417 76.5703 314.125 76.5703C310.344 76.5703 306.849 75.9401 303.641 74.6797C300.432 73.3906 297.668 71.6003 295.348 69.3086C293.027 67.0169 291.208 64.2812 289.891 61.1016C288.573 57.9219 287.914 54.4414 287.914 50.6602C287.914 46.8789 288.573 43.3984 289.891 40.2188C291.208 37.0391 293.027 34.3034 295.348 32.0117C297.668 29.7201 300.432 27.944 303.641 26.6836C306.849 25.3945 310.344 24.75 314.125 24.75C315.958 24.75 317.835 24.8789 319.754 25.1367C321.673 25.3945 323.535 25.8099 325.34 26.3828C327.145 26.9271 328.849 27.6432 330.453 28.5312C332.057 29.4193 333.447 30.5221 334.621 31.8398C335.824 33.1289 336.77 34.6328 337.457 36.3516C338.173 38.0703 338.531 40.0326 338.531 42.2383Z" fill="black"/>
<path d="M390.523 75.582H373.465V13.707H406.895C409.788 13.707 412.552 14.0938 415.188 14.8672C417.852 15.6406 420.201 16.8151 422.234 18.3906C424.268 19.9375 425.887 21.8997 427.09 24.2773C428.322 26.6263 428.938 29.3906 428.938 32.5703C428.938 34.5755 428.651 36.4661 428.078 38.2422C427.505 39.9896 426.703 41.5938 425.672 43.0547C424.669 44.5156 423.48 45.8333 422.105 47.0078C420.73 48.1823 419.227 49.1706 417.594 49.9727C415.961 50.7747 414.228 51.3906 412.395 51.8203C410.59 52.25 408.757 52.4648 406.895 52.4648H390.523V75.582ZM411.664 32.5703C411.664 28.5885 410.647 25.4661 408.613 23.2031C406.608 20.9115 403.572 19.7656 399.504 19.7656H390.523V46.6211H399.504C401.681 46.6211 403.529 46.2773 405.047 45.5898C406.594 44.8737 407.854 43.8854 408.828 42.625C409.802 41.3646 410.518 39.8893 410.977 38.1992C411.435 36.4805 411.664 34.6042 411.664 32.5703Z" fill="black"/>
<path d="M485.914 75.582H471.391V69.6523C469.672 72.0013 467.595 73.7487 465.16 74.8945C462.754 76.0117 460.104 76.5703 457.211 76.5703C453.43 76.5703 450.049 75.8971 447.07 74.5508C444.091 73.2044 441.57 71.3711 439.508 69.0508C437.445 66.7018 435.87 63.9518 434.781 60.8008C433.693 57.6497 433.148 54.2695 433.148 50.6602C433.148 47.0508 433.693 43.6706 434.781 40.5195C435.87 37.3685 437.445 34.6328 439.508 32.3125C441.57 29.9635 444.091 28.1159 447.07 26.7695C450.049 25.4232 453.43 24.75 457.211 24.75C459.13 24.75 460.949 25.0365 462.668 25.6094C464.415 26.1823 466.005 26.9987 467.438 28.0586C468.898 29.0898 470.173 30.3503 471.262 31.8398C472.379 33.3008 473.253 34.9336 473.883 36.7383L480.328 25.9531H485.914V75.582ZM471.305 50.6602C471.305 49.3711 471.233 48.0104 471.09 46.5781C470.975 45.1458 470.76 43.7279 470.445 42.3242C470.13 40.9206 469.686 39.5885 469.113 38.3281C468.569 37.0391 467.853 35.9076 466.965 34.9336C466.105 33.931 465.06 33.1432 463.828 32.5703C462.596 31.9974 461.164 31.7109 459.531 31.7109C457.898 31.7109 456.48 32.0117 455.277 32.6133C454.074 33.1862 453.043 33.974 452.184 34.9766C451.324 35.9505 450.608 37.082 450.035 38.3711C449.491 39.6602 449.061 41.0065 448.746 42.4102C448.431 43.8138 448.202 45.2318 448.059 46.6641C447.944 48.0677 447.887 49.3997 447.887 50.6602C447.887 51.9206 447.944 53.2669 448.059 54.6992C448.202 56.1315 448.431 57.5495 448.746 58.9531C449.061 60.3568 449.491 61.7031 450.035 62.9922C450.608 64.2812 451.324 65.4271 452.184 66.4297C453.043 67.4036 454.074 68.1914 455.277 68.793C456.48 69.3659 457.898 69.6523 459.531 69.6523C461.021 69.6523 462.339 69.3516 463.484 68.75C464.659 68.1198 465.676 67.2891 466.535 66.2578C467.423 65.2266 468.168 64.0521 468.77 62.7344C469.371 61.4167 469.858 60.056 470.23 58.6523C470.603 57.2487 470.875 55.8594 471.047 54.4844C471.219 53.0807 471.305 51.806 471.305 50.6602Z" fill="black"/>
<path d="M520.332 75.582H507.27L493.691 25.9531H508.215L516.723 60.7578L523.812 25.9531H536.875L545.555 61.7031L553.934 25.9531H563.988L548.949 75.582H535.887L528.539 45.418L520.332 75.582Z" fill="black"/>
<path d="M614.004 59.7266C614.004 61.9036 613.689 63.8372 613.059 65.5273C612.428 67.2174 611.569 68.6927 610.48 69.9531C609.392 71.1849 608.103 72.2305 606.613 73.0898C605.124 73.9206 603.52 74.5938 601.801 75.1094C600.111 75.625 598.335 75.9974 596.473 76.2266C594.611 76.4557 592.763 76.5703 590.93 76.5703C588.466 76.5703 586.289 76.4128 584.398 76.0977C582.508 75.7826 580.703 75.2812 578.984 74.5938C577.266 73.8776 575.547 72.9609 573.828 71.8438C572.138 70.7266 570.247 69.3659 568.156 67.7617L576.621 60.8438C577.395 62.3047 578.411 63.6367 579.672 64.8398C580.961 66.0143 582.293 67.0312 583.668 67.8906C585.043 68.75 586.375 69.4089 587.664 69.8672C588.953 70.3255 589.999 70.5547 590.801 70.5547C591.46 70.5547 592.204 70.5404 593.035 70.5117C593.866 70.4544 594.711 70.3685 595.57 70.2539C596.43 70.1107 597.275 69.9102 598.105 69.6523C598.936 69.3945 599.667 69.0508 600.297 68.6211C600.956 68.1628 601.471 67.6042 601.844 66.9453C602.245 66.2578 602.445 65.4414 602.445 64.4961C602.445 63.5221 602.188 62.6771 601.672 61.9609C601.185 61.2161 600.54 60.5716 599.738 60.0273C598.936 59.4831 598.02 59.0247 596.988 58.6523C595.957 58.2799 594.911 57.9505 593.852 57.6641C592.82 57.3776 591.818 57.1341 590.844 56.9336C589.87 56.7044 589.025 56.4896 588.309 56.2891C586.991 55.9167 585.602 55.5443 584.141 55.1719C582.68 54.7708 581.233 54.3268 579.801 53.8398C578.368 53.3242 576.993 52.7227 575.676 52.0352C574.387 51.3477 573.241 50.5312 572.238 49.5859C571.264 48.612 570.477 47.4805 569.875 46.1914C569.302 44.8737 569.016 43.3411 569.016 41.5938C569.016 38.3854 569.646 35.707 570.906 33.5586C572.195 31.3815 573.885 29.6484 575.977 28.3594C578.068 27.0417 580.445 26.1107 583.109 25.5664C585.773 25.0221 588.48 24.75 591.23 24.75C593.121 24.75 595.112 24.9505 597.203 25.3516C599.294 25.724 601.328 26.2969 603.305 27.0703C605.281 27.8151 607.129 28.7318 608.848 29.8203C610.566 30.9089 611.999 32.1549 613.145 33.5586L604.68 40.5195C604.049 38.8008 603.219 37.3255 602.188 36.0938C601.185 34.862 600.082 33.8594 598.879 33.0859C597.704 32.2839 596.487 31.6966 595.227 31.3242C593.995 30.9518 592.849 30.7656 591.789 30.7656C590.758 30.7656 589.598 30.8086 588.309 30.8945C587.02 30.9805 585.802 31.224 584.656 31.625C583.539 32.026 582.579 32.6419 581.777 33.4727C581.004 34.2747 580.617 35.3919 580.617 36.8242C580.617 37.8555 580.846 38.7435 581.305 39.4883C581.792 40.2044 582.422 40.8346 583.195 41.3789C583.969 41.8945 584.842 42.3385 585.816 42.7109C586.819 43.0547 587.836 43.3698 588.867 43.6562C589.898 43.9141 590.901 44.1432 591.875 44.3438C592.849 44.5443 593.723 44.7591 594.496 44.9883C595.814 45.3607 597.203 45.7474 598.664 46.1484C600.154 46.5208 601.615 46.9648 603.047 47.4805C604.479 47.9674 605.854 48.5547 607.172 49.2422C608.518 49.901 609.693 50.7174 610.695 51.6914C611.698 52.6654 612.5 53.8112 613.102 55.1289C613.703 56.418 614.004 57.9505 614.004 59.7266Z" fill="black"/>
<path d="M124.92 92.462V91.382H136.04C138.653 91.382 140.653 92.0087 142.04 93.262C143.453 94.4887 144.16 96.1287 144.16 98.182V99.422C144.16 101.049 143.707 102.435 142.8 103.582C141.92 104.702 140.653 105.475 139 105.902L144.12 115.342C144.467 115.982 144.72 116.435 144.88 116.702C145.04 116.942 145.187 117.102 145.32 117.182C145.48 117.235 145.693 117.275 145.96 117.302L147.76 117.542V118.582H141.72L135.4 106.262H131.48V115.342C131.48 116.275 131.52 116.822 131.6 116.982C131.68 117.142 131.933 117.249 132.36 117.302L134.56 117.542V118.582H124.92V117.542L127.12 117.302C127.547 117.249 127.8 117.142 127.88 116.982C127.96 116.822 128 116.275 128 115.342V94.622C128 93.6887 127.96 93.142 127.88 92.982C127.8 92.822 127.547 92.7154 127.12 92.662L124.92 92.462ZM136.04 92.662H131.48V104.982H136.04C137.427 104.982 138.507 104.542 139.28 103.662C140.08 102.755 140.48 101.395 140.48 99.582V98.022C140.48 96.2087 140.08 94.862 139.28 93.982C138.507 93.102 137.427 92.662 136.04 92.662Z" fill="black"/>
<path d="M166.284 114.022C165.804 115.835 164.897 117.115 163.564 117.862C162.257 118.609 160.804 118.982 159.204 118.982C156.244 118.982 154.03 118.089 152.564 116.302C151.097 114.489 150.364 112.075 150.364 109.062V108.262C150.364 105.275 151.07 102.889 152.484 101.102C153.897 99.2887 155.95 98.382 158.644 98.382C160.084 98.382 161.39 98.6754 162.564 99.262C163.764 99.8487 164.71 100.715 165.404 101.862C166.124 103.009 166.484 104.435 166.484 106.142C166.484 106.942 166.404 107.782 166.244 108.662H153.964V109.862C153.964 112.662 154.39 114.675 155.244 115.902C156.124 117.102 157.537 117.702 159.484 117.702C160.71 117.702 161.724 117.382 162.524 116.742C163.35 116.102 163.897 114.995 164.164 113.422L166.284 114.022ZM158.644 99.662C157.07 99.662 155.897 100.262 155.124 101.462C154.35 102.662 153.964 104.635 153.964 107.382H162.964V107.262C163.017 106.915 163.057 106.582 163.084 106.262C163.11 105.915 163.124 105.609 163.124 105.342C163.124 103.342 162.71 101.902 161.884 101.022C161.057 100.115 159.977 99.662 158.644 99.662Z" fill="black"/>
<path d="M192.339 117.542V118.582H182.899V117.542L185.099 117.302C185.526 117.249 185.779 117.142 185.859 116.982C185.939 116.822 185.979 116.275 185.979 115.342V105.382C185.979 103.409 185.659 102.022 185.019 101.222C184.379 100.395 183.473 99.982 182.299 99.982C181.393 99.982 180.406 100.249 179.339 100.782C178.273 101.315 177.273 102.369 176.339 103.942V115.342C176.339 116.275 176.379 116.822 176.459 116.982C176.539 117.142 176.793 117.249 177.219 117.302L179.419 117.542V118.582H169.979V117.542L172.179 117.302C172.606 117.249 172.859 117.142 172.939 116.982C173.019 116.822 173.059 116.275 173.059 115.342V92.222C173.059 91.2887 173.019 90.742 172.939 90.582C172.859 90.422 172.606 90.3154 172.179 90.262L169.979 90.062V88.982H176.339V101.822C177.273 100.622 178.339 99.7554 179.539 99.222C180.739 98.662 181.926 98.382 183.099 98.382C185.073 98.382 186.593 98.9954 187.659 100.222C188.726 101.422 189.259 103.129 189.259 105.342V115.342C189.259 116.275 189.299 116.822 189.379 116.982C189.459 117.142 189.713 117.249 190.139 117.302L192.339 117.542Z" fill="black"/>
<path d="M211.153 118.862C209.073 118.862 207.847 117.902 207.473 115.982C206.54 117.049 205.513 117.822 204.393 118.302C203.273 118.755 202.167 118.982 201.073 118.982C199.207 118.982 197.833 118.462 196.953 117.422C196.073 116.382 195.633 115.129 195.633 113.662C195.633 112.089 196.167 110.849 197.233 109.942C198.327 109.009 200.207 108.542 202.873 108.542H207.393V105.302C207.393 103.169 207.02 101.702 206.273 100.902C205.553 100.075 204.567 99.662 203.313 99.662C202.513 99.662 201.793 99.822 201.153 100.142C200.513 100.462 200.047 101.049 199.753 101.902C199.487 102.729 199.46 103.942 199.673 105.542L196.513 105.062C196.38 103.809 196.54 102.689 196.993 101.702C197.473 100.689 198.247 99.8887 199.313 99.302C200.407 98.6887 201.767 98.382 203.393 98.382C205.34 98.382 206.833 98.7154 207.873 99.382C208.913 100.022 209.633 100.862 210.033 101.902C210.46 102.942 210.673 104.075 210.673 105.302V114.302C210.673 115.662 210.82 116.515 211.113 116.862C211.433 117.209 211.78 117.382 212.153 117.382C212.393 117.382 212.647 117.329 212.913 117.222C213.18 117.089 213.473 116.889 213.793 116.622L214.513 117.622C214.113 117.969 213.633 118.262 213.073 118.502C212.54 118.742 211.9 118.862 211.153 118.862ZM202.193 117.302C202.94 117.302 203.74 117.102 204.593 116.702C205.473 116.275 206.407 115.435 207.393 114.182V109.822H203.313C201.82 109.822 200.727 110.129 200.033 110.742C199.367 111.329 199.033 112.249 199.033 113.502C199.033 114.702 199.287 115.635 199.793 116.302C200.327 116.969 201.127 117.302 202.193 117.302Z" fill="black"/>
<path d="M215.715 90.062V88.982H222.075V101.662C222.848 100.515 223.728 99.6887 224.715 99.182C225.702 98.6487 226.768 98.382 227.915 98.382C230.208 98.382 231.982 99.2487 233.235 100.982C234.515 102.715 235.155 105.142 235.155 108.262V109.062C235.155 112.102 234.422 114.515 232.955 116.302C231.515 118.089 229.488 118.982 226.875 118.982C224.795 118.982 223.088 118.302 221.755 116.942C221.382 117.155 221.035 117.422 220.715 117.742C220.395 118.062 220.075 118.409 219.755 118.782H218.795V92.222C218.795 91.2887 218.755 90.742 218.675 90.582C218.595 90.422 218.342 90.3154 217.915 90.262L215.715 90.062ZM227.395 99.822C226.568 99.822 225.702 100.089 224.795 100.622C223.915 101.155 223.008 102.235 222.075 103.862V115.302C223.222 116.875 224.742 117.662 226.635 117.662C228.368 117.662 229.622 117.009 230.395 115.702C231.168 114.369 231.555 112.555 231.555 110.262V107.062C231.555 104.555 231.195 102.729 230.475 101.582C229.755 100.409 228.728 99.822 227.395 99.822Z" fill="black"/>
<path d="M243.885 94.302C243.245 94.302 242.711 94.102 242.285 93.702C241.885 93.2754 241.685 92.7287 241.685 92.062C241.685 91.422 241.885 90.902 242.285 90.502C242.711 90.102 243.245 89.902 243.885 89.902C244.525 89.902 245.045 90.102 245.445 90.502C245.871 90.902 246.085 91.422 246.085 92.062C246.085 92.7287 245.871 93.2754 245.445 93.702C245.045 94.102 244.525 94.302 243.885 94.302ZM239.205 99.862V98.782H245.565V115.342C245.565 116.275 245.605 116.822 245.685 116.982C245.765 117.142 246.018 117.249 246.445 117.302L248.645 117.542V118.582H239.205V117.542L241.405 117.302C241.831 117.249 242.085 117.142 242.165 116.982C242.245 116.822 242.285 116.275 242.285 115.342V102.022C242.285 101.089 242.245 100.542 242.165 100.382C242.085 100.222 241.831 100.115 241.405 100.062L239.205 99.862Z" fill="black"/>
<path d="M250.878 90.062V88.982H257.238V115.342C257.238 116.275 257.278 116.822 257.358 116.982C257.438 117.142 257.691 117.249 258.118 117.302L260.318 117.542V118.582H250.878V117.542L253.078 117.302C253.504 117.249 253.758 117.142 253.838 116.982C253.918 116.822 253.958 116.275 253.958 115.342V92.222C253.958 91.2887 253.918 90.742 253.838 90.582C253.758 90.422 253.504 90.3154 253.078 90.262L250.878 90.062Z" fill="black"/>
<path d="M267.557 94.302C266.917 94.302 266.383 94.102 265.957 93.702C265.557 93.2754 265.357 92.7287 265.357 92.062C265.357 91.422 265.557 90.902 265.957 90.502C266.383 90.102 266.917 89.902 267.557 89.902C268.197 89.902 268.717 90.102 269.117 90.502C269.543 90.902 269.757 91.422 269.757 92.062C269.757 92.7287 269.543 93.2754 269.117 93.702C268.717 94.102 268.197 94.302 267.557 94.302ZM262.877 99.862V98.782H269.237V115.342C269.237 116.275 269.277 116.822 269.357 116.982C269.437 117.142 269.69 117.249 270.117 117.302L272.317 117.542V118.582H262.877V117.542L265.077 117.302C265.503 117.249 265.757 117.142 265.837 116.982C265.917 116.822 265.957 116.275 265.957 115.342V102.022C265.957 101.089 265.917 100.542 265.837 100.382C265.757 100.222 265.503 100.115 265.077 100.062L262.877 99.862Z" fill="black"/>
<path d="M288.03 114.502C287.63 116.049 287.003 117.182 286.15 117.902C285.296 118.622 284.203 118.982 282.87 118.982C281.59 118.982 280.55 118.702 279.75 118.142C278.95 117.555 278.363 116.795 277.99 115.862C277.616 114.929 277.43 113.955 277.43 112.942V102.022C277.43 101.089 277.39 100.542 277.31 100.382C277.256 100.222 277.003 100.115 276.55 100.062L274.35 99.862V98.782H277.43V93.542L280.71 92.862V98.782H287.23V100.062H280.71V113.262C280.71 114.942 280.936 116.102 281.39 116.742C281.87 117.382 282.496 117.702 283.27 117.702C284.043 117.702 284.63 117.409 285.03 116.822C285.456 116.235 285.763 115.275 285.95 113.942L288.03 114.502Z" fill="black"/>
<path d="M306.778 118.862C304.698 118.862 303.472 117.902 303.098 115.982C302.165 117.049 301.138 117.822 300.018 118.302C298.898 118.755 297.792 118.982 296.698 118.982C294.832 118.982 293.458 118.462 292.578 117.422C291.698 116.382 291.258 115.129 291.258 113.662C291.258 112.089 291.792 110.849 292.858 109.942C293.952 109.009 295.832 108.542 298.498 108.542H303.018V105.302C303.018 103.169 302.645 101.702 301.898 100.902C301.178 100.075 300.192 99.662 298.938 99.662C298.138 99.662 297.418 99.822 296.778 100.142C296.138 100.462 295.672 101.049 295.378 101.902C295.112 102.729 295.085 103.942 295.298 105.542L292.138 105.062C292.005 103.809 292.165 102.689 292.618 101.702C293.098 100.689 293.872 99.8887 294.938 99.302C296.032 98.6887 297.392 98.382 299.018 98.382C300.965 98.382 302.458 98.7154 303.498 99.382C304.538 100.022 305.258 100.862 305.658 101.902C306.085 102.942 306.298 104.075 306.298 105.302V114.302C306.298 115.662 306.445 116.515 306.738 116.862C307.058 117.209 307.405 117.382 307.778 117.382C308.018 117.382 308.272 117.329 308.538 117.222C308.805 117.089 309.098 116.889 309.418 116.622L310.138 117.622C309.738 117.969 309.258 118.262 308.698 118.502C308.165 118.742 307.525 118.862 306.778 118.862ZM297.818 117.302C298.565 117.302 299.365 117.102 300.218 116.702C301.098 116.275 302.032 115.435 303.018 114.182V109.822H298.938C297.445 109.822 296.352 110.129 295.658 110.742C294.992 111.329 294.658 112.249 294.658 113.502C294.658 114.702 294.912 115.635 295.418 116.302C295.952 116.969 296.752 117.302 297.818 117.302Z" fill="black"/>
<path d="M325.1 114.502C324.7 116.049 324.073 117.182 323.22 117.902C322.367 118.622 321.273 118.982 319.94 118.982C318.66 118.982 317.62 118.702 316.82 118.142C316.02 117.555 315.433 116.795 315.06 115.862C314.687 114.929 314.5 113.955 314.5 112.942V102.022C314.5 101.089 314.46 100.542 314.38 100.382C314.327 100.222 314.073 100.115 313.62 100.062L311.42 99.862V98.782H314.5V93.542L317.78 92.862V98.782H324.3V100.062H317.78V113.262C317.78 114.942 318.007 116.102 318.46 116.742C318.94 117.382 319.567 117.702 320.34 117.702C321.113 117.702 321.7 117.409 322.1 116.822C322.527 116.235 322.833 115.275 323.02 113.942L325.1 114.502Z" fill="black"/>
<path d="M332.049 94.302C331.409 94.302 330.875 94.102 330.449 93.702C330.049 93.2754 329.849 92.7287 329.849 92.062C329.849 91.422 330.049 90.902 330.449 90.502C330.875 90.102 331.409 89.902 332.049 89.902C332.689 89.902 333.209 90.102 333.609 90.502C334.035 90.902 334.249 91.422 334.249 92.062C334.249 92.7287 334.035 93.2754 333.609 93.702C333.209 94.102 332.689 94.302 332.049 94.302ZM327.369 99.862V98.782H333.729V115.342C333.729 116.275 333.769 116.822 333.849 116.982C333.929 117.142 334.182 117.249 334.609 117.302L336.809 117.542V118.582H327.369V117.542L329.569 117.302C329.995 117.249 330.249 117.142 330.329 116.982C330.409 116.822 330.449 116.275 330.449 115.342V102.022C330.449 101.089 330.409 100.542 330.329 100.382C330.249 100.222 329.995 100.115 329.569 100.062L327.369 99.862Z" fill="black"/>
<path d="M357.722 108.262V109.062C357.722 112.075 356.962 114.489 355.442 116.302C353.949 118.089 351.815 118.982 349.042 118.982C346.295 118.982 344.162 118.089 342.642 116.302C341.149 114.489 340.402 112.075 340.402 109.062V108.262C340.402 105.275 341.149 102.889 342.642 101.102C344.135 99.2887 346.269 98.382 349.042 98.382C351.815 98.382 353.949 99.2887 355.442 101.102C356.962 102.889 357.722 105.275 357.722 108.262ZM354.122 107.462C354.122 104.689 353.682 102.702 352.802 101.502C351.949 100.275 350.695 99.662 349.042 99.662C347.415 99.662 346.162 100.275 345.282 101.502C344.429 102.702 344.002 104.689 344.002 107.462V109.862C344.002 112.662 344.429 114.675 345.282 115.902C346.162 117.102 347.415 117.702 349.042 117.702C350.695 117.702 351.949 117.102 352.802 115.902C353.682 114.675 354.122 112.662 354.122 109.862V107.462Z" fill="black"/>
<path d="M383.948 117.542V118.582H374.508V117.542L376.707 117.302C377.134 117.249 377.387 117.142 377.467 116.982C377.547 116.822 377.587 116.275 377.587 115.342V105.382C377.587 103.409 377.268 102.022 376.628 101.222C375.988 100.395 375.067 99.982 373.867 99.982C372.987 99.982 372.014 100.249 370.948 100.782C369.881 101.315 368.881 102.355 367.948 103.902V115.342C367.948 116.275 367.988 116.822 368.068 116.982C368.148 117.142 368.401 117.249 368.828 117.302L371.027 117.542V118.582H361.587V117.542L363.788 117.302C364.214 117.249 364.467 117.142 364.547 116.982C364.627 116.822 364.668 116.275 364.668 115.342V102.022C364.668 101.089 364.627 100.542 364.547 100.382C364.467 100.222 364.214 100.115 363.788 100.062L361.587 99.862V98.782H367.747V102.022C368.707 100.742 369.787 99.822 370.987 99.262C372.214 98.6754 373.441 98.382 374.668 98.382C376.641 98.382 378.161 98.9954 379.228 100.222C380.321 101.422 380.867 103.129 380.867 105.342V115.342C380.867 116.275 380.907 116.822 380.987 116.982C381.067 117.142 381.321 117.249 381.747 117.302L383.948 117.542Z" fill="black"/>
<path d="M404.057 117.702C405.417 117.702 406.524 117.302 407.378 116.502C408.231 115.675 408.724 114.609 408.858 113.302C409.018 111.995 408.711 110.609 407.938 109.142L410.538 107.502L415.457 115.822C415.884 116.569 416.191 117.009 416.378 117.142C416.564 117.249 416.871 117.329 417.298 117.382L419.258 117.582V118.582H413.418L410.217 113.022C410.191 114.649 409.617 116.049 408.497 117.222C407.404 118.395 405.831 118.982 403.777 118.982C401.511 118.982 399.644 118.449 398.177 117.382C396.711 116.289 395.978 114.729 395.978 112.702C395.978 111.022 396.551 109.555 397.698 108.302C398.871 107.022 400.511 105.742 402.617 104.462L403.057 104.182C401.191 103.142 399.804 102.035 398.897 100.862C397.991 99.6887 397.538 98.4487 397.538 97.142C397.538 96.102 397.818 95.1154 398.378 94.182C398.938 93.222 399.737 92.4487 400.777 91.862C401.844 91.2754 403.084 90.982 404.497 90.982C405.964 90.982 407.204 91.2754 408.217 91.862C409.257 92.422 410.057 93.1687 410.617 94.102C411.177 95.0354 411.457 96.0487 411.457 97.142C411.457 98.2087 411.204 99.142 410.698 99.942C410.218 100.742 409.551 101.462 408.698 102.102C407.871 102.715 406.951 103.342 405.938 103.982L403.698 105.422C402.391 106.249 401.351 107.235 400.578 108.382C399.831 109.502 399.457 110.889 399.457 112.542C399.457 114.382 399.911 115.702 400.818 116.502C401.751 117.302 402.831 117.702 404.057 117.702ZM401.017 96.942C401.017 97.9287 401.217 98.9954 401.617 100.142C402.017 101.262 402.871 102.369 404.177 103.462L404.938 102.942C405.924 102.329 406.671 101.542 407.177 100.582C407.711 99.622 407.978 98.4487 407.978 97.062C407.978 95.4354 407.657 94.2354 407.017 93.462C406.377 92.662 405.551 92.262 404.538 92.262C403.524 92.262 402.684 92.6354 402.017 93.382C401.351 94.102 401.017 95.2887 401.017 96.942Z" fill="black"/>
<path d="M438.566 117.702C440.352 117.702 441.792 117.262 442.886 116.382C444.006 115.502 444.566 114.209 444.566 112.502C444.566 111.142 444.152 110.009 443.326 109.102C442.499 108.169 441.059 107.422 439.006 106.862L436.246 106.062C434.219 105.502 432.672 104.555 431.606 103.222C430.539 101.889 430.006 100.262 430.006 98.342C430.006 97.062 430.299 95.862 430.886 94.742C431.499 93.622 432.419 92.7154 433.646 92.022C434.899 91.3287 436.486 90.982 438.406 90.982C440.539 90.982 442.259 91.382 443.566 92.182C444.872 92.9554 445.779 93.9687 446.286 95.222C446.792 96.4754 446.912 97.822 446.646 99.262L443.286 99.982C443.632 97.502 443.379 95.5954 442.526 94.262C441.699 92.9287 440.259 92.262 438.206 92.262C436.579 92.262 435.299 92.702 434.366 93.582C433.432 94.4354 432.966 95.6887 432.966 97.342C432.966 98.6487 433.339 99.7687 434.086 100.702C434.832 101.609 436.152 102.329 438.046 102.862L440.806 103.662C445.259 104.889 447.486 107.489 447.486 111.462C447.486 112.875 447.152 114.155 446.486 115.302C445.846 116.422 444.859 117.315 443.526 117.982C442.219 118.649 440.566 118.982 438.566 118.982C437.179 118.982 435.846 118.769 434.566 118.342C433.312 117.915 432.232 117.182 431.326 116.142C430.446 115.102 429.859 113.662 429.566 111.822L431.966 111.022C432.099 112.782 432.486 114.142 433.126 115.102C433.766 116.062 434.566 116.742 435.526 117.142C436.486 117.515 437.499 117.702 438.566 117.702Z" fill="black"/>
<path d="M467.56 118.862C465.48 118.862 464.253 117.902 463.88 115.982C462.946 117.049 461.92 117.822 460.8 118.302C459.68 118.755 458.573 118.982 457.48 118.982C455.613 118.982 454.24 118.462 453.36 117.422C452.48 116.382 452.04 115.129 452.04 113.662C452.04 112.089 452.573 110.849 453.64 109.942C454.733 109.009 456.613 108.542 459.28 108.542H463.8V105.302C463.8 103.169 463.426 101.702 462.68 100.902C461.96 100.075 460.973 99.662 459.72 99.662C458.92 99.662 458.2 99.822 457.56 100.142C456.92 100.462 456.453 101.049 456.16 101.902C455.893 102.729 455.866 103.942 456.08 105.542L452.92 105.062C452.786 103.809 452.946 102.689 453.4 101.702C453.88 100.689 454.653 99.8887 455.72 99.302C456.813 98.6887 458.173 98.382 459.8 98.382C461.746 98.382 463.24 98.7154 464.28 99.382C465.32 100.022 466.04 100.862 466.44 101.902C466.866 102.942 467.08 104.075 467.08 105.302V114.302C467.08 115.662 467.226 116.515 467.52 116.862C467.84 117.209 468.186 117.382 468.56 117.382C468.8 117.382 469.053 117.329 469.32 117.222C469.586 117.089 469.88 116.889 470.2 116.622L470.92 117.622C470.52 117.969 470.04 118.262 469.48 118.502C468.946 118.742 468.306 118.862 467.56 118.862ZM458.6 117.302C459.346 117.302 460.146 117.102 461 116.702C461.88 116.275 462.813 115.435 463.8 114.182V109.822H459.72C458.226 109.822 457.133 110.129 456.44 110.742C455.773 111.329 455.44 112.249 455.44 113.502C455.44 114.702 455.693 115.635 456.2 116.302C456.733 116.969 457.533 117.302 458.6 117.302Z" fill="black"/>
<path d="M495.041 117.542V118.582H485.601V117.542L487.801 117.302C488.228 117.249 488.481 117.142 488.561 116.982C488.641 116.822 488.681 116.275 488.681 115.342V105.382C488.681 103.409 488.361 102.022 487.721 101.222C487.081 100.395 486.161 99.982 484.961 99.982C484.081 99.982 483.108 100.249 482.041 100.782C480.975 101.315 479.975 102.355 479.041 103.902V115.342C479.041 116.275 479.081 116.822 479.161 116.982C479.241 117.142 479.495 117.249 479.921 117.302L482.121 117.542V118.582H472.681V117.542L474.881 117.302C475.308 117.249 475.561 117.142 475.641 116.982C475.721 116.822 475.761 116.275 475.761 115.342V102.022C475.761 101.089 475.721 100.542 475.641 100.382C475.561 100.222 475.308 100.115 474.881 100.062L472.681 99.862V98.782H478.841V102.022C479.801 100.742 480.881 99.822 482.081 99.262C483.308 98.6754 484.535 98.382 485.761 98.382C487.735 98.382 489.255 98.9954 490.321 100.222C491.415 101.422 491.961 103.129 491.961 105.342V115.342C491.961 116.275 492.001 116.822 492.081 116.982C492.161 117.142 492.415 117.249 492.841 117.302L495.041 117.542Z" fill="black"/>
<path d="M506.729 99.662C505.262 99.662 504.115 100.275 503.289 101.502C502.489 102.702 502.089 104.689 502.089 107.462V109.862C502.089 112.662 502.489 114.675 503.289 115.902C504.115 117.102 505.449 117.702 507.289 117.702C508.542 117.702 509.555 117.382 510.329 116.742C511.102 116.102 511.622 114.995 511.889 113.422L514.009 114.022C513.529 115.835 512.649 117.115 511.369 117.862C510.089 118.609 508.662 118.982 507.089 118.982C504.209 118.982 502.049 118.089 500.609 116.302C499.195 114.489 498.489 112.075 498.489 109.062V108.262C498.489 105.275 499.195 102.889 500.609 101.102C502.022 99.2887 504.062 98.382 506.729 98.382C508.435 98.382 509.849 98.7154 510.969 99.382C512.115 100.049 512.929 100.955 513.409 102.102C513.889 103.222 514.022 104.462 513.809 105.822L510.649 106.302C510.942 104.169 510.742 102.529 510.049 101.382C509.382 100.235 508.275 99.662 506.729 99.662Z" fill="black"/>
<path d="M530.647 114.502C530.247 116.049 529.62 117.182 528.767 117.902C527.914 118.622 526.82 118.982 525.487 118.982C524.207 118.982 523.167 118.702 522.367 118.142C521.567 117.555 520.98 116.795 520.607 115.862C520.234 114.929 520.047 113.955 520.047 112.942V102.022C520.047 101.089 520.007 100.542 519.927 100.382C519.874 100.222 519.62 100.115 519.167 100.062L516.967 99.862V98.782H520.047V93.542L523.327 92.862V98.782H529.847V100.062H523.327V113.262C523.327 114.942 523.554 116.102 524.007 116.742C524.487 117.382 525.114 117.702 525.887 117.702C526.66 117.702 527.247 117.409 527.647 116.822C528.074 116.235 528.38 115.275 528.567 113.942L530.647 114.502Z" fill="black"/>
<path d="M554.316 117.542V118.582H548.156V115.382C547.222 116.635 546.156 117.555 544.956 118.142C543.782 118.702 542.609 118.982 541.436 118.982C539.542 118.982 538.062 118.382 536.996 117.182C535.956 115.955 535.436 114.235 535.436 112.022V102.022C535.436 101.089 535.396 100.542 535.316 100.382C535.236 100.222 534.982 100.115 534.556 100.062L532.356 99.862V98.782H538.716V111.982C538.716 113.955 539.009 115.355 539.596 116.182C540.209 116.982 541.089 117.382 542.236 117.382C543.089 117.382 544.022 117.115 545.036 116.582C546.076 116.049 547.049 115.022 547.956 113.502V102.022C547.956 101.089 547.916 100.542 547.836 100.382C547.756 100.195 547.502 100.089 547.076 100.062L544.076 99.862V98.782H551.236V115.342C551.236 116.275 551.276 116.822 551.356 116.982C551.436 117.142 551.689 117.249 552.116 117.302L554.316 117.542Z" fill="black"/>
<path d="M573.341 118.862C571.261 118.862 570.034 117.902 569.661 115.982C568.728 117.049 567.701 117.822 566.581 118.302C565.461 118.755 564.354 118.982 563.261 118.982C561.394 118.982 560.021 118.462 559.141 117.422C558.261 116.382 557.821 115.129 557.821 113.662C557.821 112.089 558.354 110.849 559.421 109.942C560.514 109.009 562.394 108.542 565.061 108.542H569.581V105.302C569.581 103.169 569.208 101.702 568.461 100.902C567.741 100.075 566.754 99.662 565.501 99.662C564.701 99.662 563.981 99.822 563.341 100.142C562.701 100.462 562.234 101.049 561.941 101.902C561.674 102.729 561.648 103.942 561.861 105.542L558.701 105.062C558.568 103.809 558.728 102.689 559.181 101.702C559.661 100.689 560.434 99.8887 561.501 99.302C562.594 98.6887 563.954 98.382 565.581 98.382C567.528 98.382 569.021 98.7154 570.061 99.382C571.101 100.022 571.821 100.862 572.221 101.902C572.648 102.942 572.861 104.075 572.861 105.302V114.302C572.861 115.662 573.008 116.515 573.301 116.862C573.621 117.209 573.968 117.382 574.341 117.382C574.581 117.382 574.834 117.329 575.101 117.222C575.368 117.089 575.661 116.889 575.981 116.622L576.701 117.622C576.301 117.969 575.821 118.262 575.261 118.502C574.728 118.742 574.088 118.862 573.341 118.862ZM564.381 117.302C565.128 117.302 565.928 117.102 566.781 116.702C567.661 116.275 568.594 115.435 569.581 114.182V109.822H565.501C564.008 109.822 562.914 110.129 562.221 110.742C561.554 111.329 561.221 112.249 561.221 113.502C561.221 114.702 561.474 115.635 561.981 116.302C562.514 116.969 563.314 117.302 564.381 117.302Z" fill="black"/>
<path d="M578.463 99.862V98.782H584.622V101.982C585.556 100.729 586.489 99.822 587.422 99.262C588.382 98.6754 589.356 98.382 590.343 98.382C591.196 98.382 591.996 98.6354 592.742 99.142C593.489 99.6487 594.116 100.462 594.622 101.582L592.023 103.142C591.623 102.182 591.169 101.515 590.662 101.142C590.156 100.769 589.596 100.582 588.982 100.582C588.316 100.582 587.649 100.795 586.982 101.222C586.342 101.649 585.623 102.449 584.823 103.622V115.342C584.823 116.275 584.863 116.835 584.943 117.022C585.023 117.182 585.276 117.275 585.703 117.302L588.703 117.542V118.582H578.463V117.542L580.662 117.302C581.089 117.249 581.342 117.142 581.422 116.982C581.502 116.822 581.542 116.275 581.542 115.342V102.022C581.542 101.089 581.502 100.542 581.422 100.382C581.342 100.222 581.089 100.115 580.662 100.062L578.463 99.862Z" fill="black"/>
<path d="M605.841 120.582C605.254 122.209 604.614 123.529 603.921 124.542C603.227 125.582 602.401 126.329 601.441 126.782C600.481 127.262 599.281 127.502 597.841 127.502V124.302C599.761 124.302 601.214 123.995 602.201 123.382C603.187 122.795 603.974 121.689 604.561 120.062L605.081 118.582H603.921L598.041 101.782C597.774 101.009 597.574 100.555 597.441 100.422C597.307 100.262 597.027 100.155 596.601 100.102L594.561 99.862V98.782H603.681V99.862L601.641 100.102C601.267 100.129 601.054 100.222 601.001 100.382C600.947 100.542 601.054 101.009 601.321 101.782L606.121 115.622L610.961 101.742C611.201 100.969 611.294 100.515 611.241 100.382C611.214 100.249 611.001 100.155 610.601 100.102L608.521 99.862V98.782H615.841V99.862L613.801 100.102C613.401 100.155 613.134 100.249 613.001 100.382C612.867 100.515 612.667 100.969 612.401 101.742L605.841 120.582Z" fill="black"/>
<path d="M109 70.082C109 100.182 84.5995 124.582 54.5 124.582C24.4005 124.582 0 100.182 0 70.082C0 39.9825 24.4005 15.582 54.5 15.582C84.5995 15.582 109 39.9825 109 70.082Z" fill="#1E1E1E"/>
<path d="M44.4885 63.8C51.733 65.6946 52.5863 70.3886 53.4082 73.207C56.0775 71.1039 60.2547 68.4834 66.4375 70.3201C72.6204 72.1567 72.9746 78.6975 72.9594 80.9455C71.783 84.7792 71.421 85.9588 70.1693 87.8394C64.71 96.8364 50.2101 101.217 47.375 101.662C45.1069 102.018 43.7507 101.015 43.3562 100.468C28.5404 86.0921 29.1061 74.3543 28.9404 72.6962C28.7748 71.0381 29.9158 68.0519 30.5693 67.388C32.1905 65.4026 37.244 61.9054 44.4885 63.8Z" fill="#9ADAB0"/>
<path d="M35.0893 52.9992C36.3604 57.888 34.2838 62.6333 30.451 63.5979C26.6183 64.5626 22.4808 61.3815 21.2097 56.4927C19.9386 51.6038 22.0152 46.8586 25.848 45.894C29.6807 44.9293 33.8182 48.1104 35.0893 52.9992Z" fill="#9ADAB0"/>
<path d="M56.3991 49.1239C54.864 55.5195 50.142 59.8962 45.8521 58.8995C41.5622 57.9027 39.329 51.91 40.864 45.5144C42.399 39.1188 47.121 34.7421 51.4109 35.7388C55.7008 36.7356 57.9341 42.7283 56.3991 49.1239Z" fill="#9ADAB0"/>
<path d="M79.0168 54.0006C78.3233 60.4845 73.816 65.3322 68.9493 64.8283C64.0826 64.3244 60.6996 58.6597 61.3931 52.1758C62.0866 45.692 66.594 40.8442 71.4606 41.3481C76.3273 41.852 79.7103 47.5167 79.0168 54.0006Z" fill="#9ADAB0"/>
<path d="M87.9391 74.2883C86.7502 78.1285 83.2643 80.4858 80.153 79.5534C77.0417 78.6209 75.4834 74.7519 76.6722 70.9116C77.8611 67.0714 81.3471 64.7141 84.4584 65.6465C87.5696 66.579 89.128 70.448 87.9391 74.2883Z" fill="#9ADAB0"/>
</svg>
